<mxfile host="app.diagrams.net" agent="Mozilla/5.0 (Windows NT 10.0; Win64; x64) AppleWebKit/537.36 (KHTML, like Gecko) Chrome/122.0.0.0 Safari/537.36" version="25.0.3">
  <diagram name="PÃ¡gina-1" id="_rZulrzsdtSt4vWavjif">
    <mxGraphModel dx="2402" dy="878" grid="0" gridSize="10" guides="1" tooltips="1" connect="1" arrows="1" fold="1" page="0" pageScale="1" pageWidth="1169" pageHeight="827" math="0" shadow="0">
      <root>
        <mxCell id="0" />
        <mxCell id="1" parent="0" />
        <mxCell id="lu0znOIndSDiGiOmnlGc-1" value="AWS Cloud" style="points=[[0,0],[0.25,0],[0.5,0],[0.75,0],[1,0],[1,0.25],[1,0.5],[1,0.75],[1,1],[0.75,1],[0.5,1],[0.25,1],[0,1],[0,0.75],[0,0.5],[0,0.25]];outlineConnect=0;gradientColor=none;html=1;whiteSpace=wrap;fontSize=12;fontStyle=0;container=1;pointerEvents=0;collapsible=0;recursiveResize=0;shape=mxgraph.aws4.group;grIcon=mxgraph.aws4.group_aws_cloud_alt;strokeColor=#232F3E;fillColor=none;verticalAlign=top;align=left;spacingLeft=30;fontColor=#232F3E;dashed=0;" parent="1" vertex="1">
          <mxGeometry x="-485" y="145" width="1565" height="979" as="geometry" />
        </mxCell>
        <mxCell id="lu0znOIndSDiGiOmnlGc-4" value="Region" style="points=[[0,0],[0.25,0],[0.5,0],[0.75,0],[1,0],[1,0.25],[1,0.5],[1,0.75],[1,1],[0.75,1],[0.5,1],[0.25,1],[0,1],[0,0.75],[0,0.5],[0,0.25]];outlineConnect=0;gradientColor=none;html=1;whiteSpace=wrap;fontSize=12;fontStyle=0;container=1;pointerEvents=0;collapsible=0;recursiveResize=0;shape=mxgraph.aws4.group;grIcon=mxgraph.aws4.group_region;strokeColor=#00A4A6;fillColor=none;verticalAlign=top;align=left;spacingLeft=30;fontColor=#147EBA;dashed=1;" parent="lu0znOIndSDiGiOmnlGc-1" vertex="1">
          <mxGeometry x="458" y="50" width="1081" height="903" as="geometry" />
        </mxCell>
        <mxCell id="teR93byTSqqBIhb2rqv4-10" value="" style="sketch=0;points=[[0,0,0],[0.25,0,0],[0.5,0,0],[0.75,0,0],[1,0,0],[0,1,0],[0.25,1,0],[0.5,1,0],[0.75,1,0],[1,1,0],[0,0.25,0],[0,0.5,0],[0,0.75,0],[1,0.25,0],[1,0.5,0],[1,0.75,0]];outlineConnect=0;fontColor=#232F3E;fillColor=#DD344C;strokeColor=#ffffff;dashed=0;verticalLabelPosition=bottom;verticalAlign=top;align=center;html=1;fontSize=12;fontStyle=0;aspect=fixed;shape=mxgraph.aws4.resourceIcon;resIcon=mxgraph.aws4.cognito;" vertex="1" parent="lu0znOIndSDiGiOmnlGc-1">
          <mxGeometry x="335" y="335" width="51" height="51" as="geometry" />
        </mxCell>
        <mxCell id="teR93byTSqqBIhb2rqv4-13" value="" style="sketch=0;points=[[0,0,0],[0.25,0,0],[0.5,0,0],[0.75,0,0],[1,0,0],[0,1,0],[0.25,1,0],[0.5,1,0],[0.75,1,0],[1,1,0],[0,0.25,0],[0,0.5,0],[0,0.75,0],[1,0.25,0],[1,0.5,0],[1,0.75,0]];outlineConnect=0;fontColor=#232F3E;fillColor=#8C4FFF;strokeColor=#ffffff;dashed=0;verticalLabelPosition=bottom;verticalAlign=top;align=center;html=1;fontSize=12;fontStyle=0;aspect=fixed;shape=mxgraph.aws4.resourceIcon;resIcon=mxgraph.aws4.cloudfront;" vertex="1" parent="lu0znOIndSDiGiOmnlGc-1">
          <mxGeometry x="32" y="333" width="47" height="47" as="geometry" />
        </mxCell>
        <mxCell id="teR93byTSqqBIhb2rqv4-11" value="Cognito" style="text;html=1;align=center;verticalAlign=middle;resizable=0;points=[];autosize=1;strokeColor=none;fillColor=none;" vertex="1" parent="lu0znOIndSDiGiOmnlGc-1">
          <mxGeometry x="397" y="347.5" width="59" height="26" as="geometry" />
        </mxCell>
        <mxCell id="teR93byTSqqBIhb2rqv4-14" value="CloudFront" style="text;html=1;align=center;verticalAlign=middle;resizable=0;points=[];autosize=1;strokeColor=none;fillColor=none;" vertex="1" parent="lu0znOIndSDiGiOmnlGc-1">
          <mxGeometry x="16.129999999999995" y="382" width="77" height="26" as="geometry" />
        </mxCell>
        <mxCell id="teR93byTSqqBIhb2rqv4-15" value="" style="sketch=0;points=[[0,0,0],[0.25,0,0],[0.5,0,0],[0.75,0,0],[1,0,0],[0,1,0],[0.25,1,0],[0.5,1,0],[0.75,1,0],[1,1,0],[0,0.25,0],[0,0.5,0],[0,0.75,0],[1,0.25,0],[1,0.5,0],[1,0.75,0]];outlineConnect=0;fontColor=#232F3E;fillColor=#DD344C;strokeColor=#ffffff;dashed=0;verticalLabelPosition=bottom;verticalAlign=top;align=center;html=1;fontSize=12;fontStyle=0;aspect=fixed;shape=mxgraph.aws4.resourceIcon;resIcon=mxgraph.aws4.waf;" vertex="1" parent="lu0znOIndSDiGiOmnlGc-1">
          <mxGeometry x="155" y="335" width="53" height="53" as="geometry" />
        </mxCell>
        <mxCell id="teR93byTSqqBIhb2rqv4-16" value="" style="endArrow=open;html=1;rounded=0;strokeColor=#545B64;entryX=0.057;entryY=0.377;entryDx=0;entryDy=0;entryPerimeter=0;endFill=0;dashed=1;" edge="1" parent="lu0znOIndSDiGiOmnlGc-1">
          <mxGeometry width="50" height="50" relative="1" as="geometry">
            <mxPoint x="77" y="365.0685483870968" as="sourcePoint" />
            <mxPoint x="156.02099999999996" y="364.981" as="targetPoint" />
          </mxGeometry>
        </mxCell>
        <mxCell id="teR93byTSqqBIhb2rqv4-17" value="" style="sketch=0;points=[[0,0,0],[0.25,0,0],[0.5,0,0],[0.75,0,0],[1,0,0],[0,1,0],[0.25,1,0],[0.5,1,0],[0.75,1,0],[1,1,0],[0,0.25,0],[0,0.5,0],[0,0.75,0],[1,0.25,0],[1,0.5,0],[1,0.75,0]];outlineConnect=0;fontColor=#232F3E;fillColor=#8C4FFF;strokeColor=#ffffff;dashed=0;verticalLabelPosition=bottom;verticalAlign=top;align=center;html=1;fontSize=12;fontStyle=0;aspect=fixed;shape=mxgraph.aws4.resourceIcon;resIcon=mxgraph.aws4.route_53;" vertex="1" parent="lu0znOIndSDiGiOmnlGc-1">
          <mxGeometry x="32" y="205" width="49" height="49" as="geometry" />
        </mxCell>
        <mxCell id="teR93byTSqqBIhb2rqv4-20" value="" style="endArrow=open;html=1;rounded=0;strokeColor=#545B64;endFill=0;dashed=1;" edge="1" parent="lu0znOIndSDiGiOmnlGc-1" source="teR93byTSqqBIhb2rqv4-17" target="teR93byTSqqBIhb2rqv4-13">
          <mxGeometry width="50" height="50" relative="1" as="geometry">
            <mxPoint x="99" y="375.0685483870968" as="sourcePoint" />
            <mxPoint x="178" y="375" as="targetPoint" />
          </mxGeometry>
        </mxCell>
        <mxCell id="teR93byTSqqBIhb2rqv4-21" value="" style="sketch=0;points=[[0,0,0],[0.25,0,0],[0.5,0,0],[0.75,0,0],[1,0,0],[0,1,0],[0.25,1,0],[0.5,1,0],[0.75,1,0],[1,1,0],[0,0.25,0],[0,0.5,0],[0,0.75,0],[1,0.25,0],[1,0.5,0],[1,0.75,0]];outlineConnect=0;fontColor=#232F3E;fillColor=#E7157B;strokeColor=#ffffff;dashed=0;verticalLabelPosition=bottom;verticalAlign=top;align=center;html=1;fontSize=12;fontStyle=0;aspect=fixed;shape=mxgraph.aws4.resourceIcon;resIcon=mxgraph.aws4.api_gateway;" vertex="1" parent="lu0znOIndSDiGiOmnlGc-1">
          <mxGeometry x="156.75" y="205" width="49.5" height="49.5" as="geometry" />
        </mxCell>
        <mxCell id="teR93byTSqqBIhb2rqv4-22" value="" style="endArrow=open;html=1;rounded=0;strokeColor=#545B64;entryX=0;entryY=0.5;entryDx=0;entryDy=0;entryPerimeter=0;endFill=0;" edge="1" parent="lu0znOIndSDiGiOmnlGc-1" source="teR93byTSqqBIhb2rqv4-17" target="teR93byTSqqBIhb2rqv4-21">
          <mxGeometry width="50" height="50" relative="1" as="geometry">
            <mxPoint x="89" y="365.0685483870968" as="sourcePoint" />
            <mxPoint x="168" y="365" as="targetPoint" />
          </mxGeometry>
        </mxCell>
        <mxCell id="teR93byTSqqBIhb2rqv4-23" value="" style="endArrow=open;html=1;rounded=0;strokeColor=#545B64;entryX=0.5;entryY=0;entryDx=0;entryDy=0;entryPerimeter=0;endFill=0;" edge="1" parent="lu0znOIndSDiGiOmnlGc-1" source="teR93byTSqqBIhb2rqv4-21" target="teR93byTSqqBIhb2rqv4-15">
          <mxGeometry width="50" height="50" relative="1" as="geometry">
            <mxPoint x="153" y="286" as="sourcePoint" />
            <mxPoint x="229" y="286" as="targetPoint" />
          </mxGeometry>
        </mxCell>
        <mxCell id="teR93byTSqqBIhb2rqv4-24" value="" style="endArrow=open;html=1;rounded=0;strokeColor=#545B64;endFill=0;dashed=1;" edge="1" parent="lu0znOIndSDiGiOmnlGc-1" source="teR93byTSqqBIhb2rqv4-15" target="teR93byTSqqBIhb2rqv4-10">
          <mxGeometry width="50" height="50" relative="1" as="geometry">
            <mxPoint x="101" y="250" as="sourcePoint" />
            <mxPoint x="177" y="250" as="targetPoint" />
            <Array as="points">
              <mxPoint x="272" y="362" />
            </Array>
          </mxGeometry>
        </mxCell>
        <mxCell id="teR93byTSqqBIhb2rqv4-25" value="Aws WAF" style="text;html=1;align=center;verticalAlign=middle;resizable=0;points=[];autosize=1;strokeColor=none;fillColor=none;" vertex="1" parent="lu0znOIndSDiGiOmnlGc-1">
          <mxGeometry x="213" y="330" width="70" height="26" as="geometry" />
        </mxCell>
        <mxCell id="teR93byTSqqBIhb2rqv4-26" value="DNS Resolution" style="text;html=1;align=center;verticalAlign=middle;resizable=0;points=[];autosize=1;strokeColor=none;fillColor=none;" vertex="1" parent="lu0znOIndSDiGiOmnlGc-1">
          <mxGeometry x="10" y="172" width="103" height="26" as="geometry" />
        </mxCell>
        <mxCell id="teR93byTSqqBIhb2rqv4-27" value="API Gateway" style="text;html=1;align=center;verticalAlign=middle;resizable=0;points=[];autosize=1;strokeColor=none;fillColor=none;" vertex="1" parent="lu0znOIndSDiGiOmnlGc-1">
          <mxGeometry x="137.5" y="172" width="88" height="26" as="geometry" />
        </mxCell>
        <mxCell id="teR93byTSqqBIhb2rqv4-33" value="" style="endArrow=open;html=1;rounded=0;strokeColor=#545B64;entryX=0.5;entryY=1;entryDx=0;entryDy=0;entryPerimeter=0;endFill=0;exitX=0.5;exitY=1;exitDx=0;exitDy=0;exitPerimeter=0;" edge="1" parent="lu0znOIndSDiGiOmnlGc-1" source="teR93byTSqqBIhb2rqv4-15" target="teR93byTSqqBIhb2rqv4-10">
          <mxGeometry width="50" height="50" relative="1" as="geometry">
            <mxPoint x="192" y="265" as="sourcePoint" />
            <mxPoint x="192" y="345" as="targetPoint" />
            <Array as="points">
              <mxPoint x="182" y="453" />
              <mxPoint x="361" y="453" />
            </Array>
          </mxGeometry>
        </mxCell>
        <mxCell id="lu0znOIndSDiGiOmnlGc-5" value="&lt;font style=&quot;font-size: 15px;&quot; color=&quot;#8c4fff&quot;&gt;&lt;b style=&quot;&quot;&gt;VPC 10.0.0.0/16&lt;/b&gt;&lt;/font&gt;" style="points=[[0,0],[0.25,0],[0.5,0],[0.75,0],[1,0],[1,0.25],[1,0.5],[1,0.75],[1,1],[0.75,1],[0.5,1],[0.25,1],[0,1],[0,0.75],[0,0.5],[0,0.25]];outlineConnect=0;gradientColor=none;html=1;whiteSpace=wrap;fontSize=12;fontStyle=0;container=1;pointerEvents=0;collapsible=0;recursiveResize=0;shape=mxgraph.aws4.group;grIcon=mxgraph.aws4.group_vpc2;strokeColor=#8C4FFF;fillColor=none;verticalAlign=top;align=left;spacingLeft=30;fontColor=#AAB7B8;dashed=0;" parent="1" vertex="1">
          <mxGeometry x="1" y="227" width="1016" height="841" as="geometry" />
        </mxCell>
        <mxCell id="lu0znOIndSDiGiOmnlGc-11" value="Availability Zone" style="fillColor=none;strokeColor=#147EBA;dashed=1;verticalAlign=top;fontStyle=0;fontColor=#147EBA;whiteSpace=wrap;html=1;" parent="lu0znOIndSDiGiOmnlGc-5" vertex="1">
          <mxGeometry x="652" y="35" width="320" height="766" as="geometry" />
        </mxCell>
        <mxCell id="lu0znOIndSDiGiOmnlGc-10" value="Availability Zone" style="fillColor=none;strokeColor=#147EBA;dashed=1;verticalAlign=top;fontStyle=0;fontColor=#147EBA;whiteSpace=wrap;html=1;" parent="lu0znOIndSDiGiOmnlGc-5" vertex="1">
          <mxGeometry x="280" y="35" width="320" height="769" as="geometry" />
        </mxCell>
        <mxCell id="lu0znOIndSDiGiOmnlGc-12" value="Public subnet" style="points=[[0,0],[0.25,0],[0.5,0],[0.75,0],[1,0],[1,0.25],[1,0.5],[1,0.75],[1,1],[0.75,1],[0.5,1],[0.25,1],[0,1],[0,0.75],[0,0.5],[0,0.25]];outlineConnect=0;gradientColor=none;html=1;whiteSpace=wrap;fontSize=12;fontStyle=0;container=1;pointerEvents=0;collapsible=0;recursiveResize=0;shape=mxgraph.aws4.group;grIcon=mxgraph.aws4.group_security_group;grStroke=0;strokeColor=#7AA116;fillColor=#F2F6E8;verticalAlign=top;align=left;spacingLeft=30;fontColor=#248814;dashed=0;" parent="lu0znOIndSDiGiOmnlGc-5" vertex="1">
          <mxGeometry x="295" y="75" width="290" height="277" as="geometry" />
        </mxCell>
        <mxCell id="lu0znOIndSDiGiOmnlGc-16" value="Public subnet" style="points=[[0,0],[0.25,0],[0.5,0],[0.75,0],[1,0],[1,0.25],[1,0.5],[1,0.75],[1,1],[0.75,1],[0.5,1],[0.25,1],[0,1],[0,0.75],[0,0.5],[0,0.25]];outlineConnect=0;gradientColor=none;html=1;whiteSpace=wrap;fontSize=12;fontStyle=0;container=1;pointerEvents=0;collapsible=0;recursiveResize=0;shape=mxgraph.aws4.group;grIcon=mxgraph.aws4.group_security_group;grStroke=0;strokeColor=#7AA116;fillColor=#F2F6E8;verticalAlign=top;align=left;spacingLeft=30;fontColor=#248814;dashed=0;" parent="lu0znOIndSDiGiOmnlGc-5" vertex="1">
          <mxGeometry x="668" y="75" width="290" height="264" as="geometry" />
        </mxCell>
        <mxCell id="lu0znOIndSDiGiOmnlGc-17" value="Private subnet" style="points=[[0,0],[0.25,0],[0.5,0],[0.75,0],[1,0],[1,0.25],[1,0.5],[1,0.75],[1,1],[0.75,1],[0.5,1],[0.25,1],[0,1],[0,0.75],[0,0.5],[0,0.25]];outlineConnect=0;gradientColor=none;html=1;whiteSpace=wrap;fontSize=12;fontStyle=0;container=1;pointerEvents=0;collapsible=0;recursiveResize=0;shape=mxgraph.aws4.group;grIcon=mxgraph.aws4.group_security_group;grStroke=0;strokeColor=#00A4A6;fillColor=#E6F6F7;verticalAlign=top;align=left;spacingLeft=30;fontColor=#147EBA;dashed=0;" parent="lu0znOIndSDiGiOmnlGc-5" vertex="1">
          <mxGeometry x="295" y="370" width="295" height="412" as="geometry" />
        </mxCell>
        <mxCell id="lu0znOIndSDiGiOmnlGc-18" value="Private subnet" style="points=[[0,0],[0.25,0],[0.5,0],[0.75,0],[1,0],[1,0.25],[1,0.5],[1,0.75],[1,1],[0.75,1],[0.5,1],[0.25,1],[0,1],[0,0.75],[0,0.5],[0,0.25]];outlineConnect=0;gradientColor=none;html=1;whiteSpace=wrap;fontSize=12;fontStyle=0;container=1;pointerEvents=0;collapsible=0;recursiveResize=0;shape=mxgraph.aws4.group;grIcon=mxgraph.aws4.group_security_group;grStroke=0;strokeColor=#00A4A6;fillColor=#E6F6F7;verticalAlign=top;align=left;spacingLeft=30;fontColor=#147EBA;dashed=0;" parent="lu0znOIndSDiGiOmnlGc-5" vertex="1">
          <mxGeometry x="673" y="370" width="295" height="410" as="geometry" />
        </mxCell>
        <mxCell id="teR93byTSqqBIhb2rqv4-12" value="" style="sketch=0;points=[[0,0,0],[0.25,0,0],[0.5,0,0],[0.75,0,0],[1,0,0],[0,1,0],[0.25,1,0],[0.5,1,0],[0.75,1,0],[1,1,0],[0,0.25,0],[0,0.5,0],[0,0.75,0],[1,0.25,0],[1,0.5,0],[1,0.75,0]];outlineConnect=0;fontColor=#232F3E;fillColor=#7AA116;strokeColor=#ffffff;dashed=0;verticalLabelPosition=bottom;verticalAlign=top;align=center;html=1;fontSize=12;fontStyle=0;aspect=fixed;shape=mxgraph.aws4.resourceIcon;resIcon=mxgraph.aws4.s3;" vertex="1" parent="lu0znOIndSDiGiOmnlGc-5">
          <mxGeometry x="322" y="115" width="43.5" height="43.5" as="geometry" />
        </mxCell>
        <mxCell id="teR93byTSqqBIhb2rqv4-32" value="Bucket S3" style="text;html=1;align=center;verticalAlign=middle;resizable=0;points=[];autosize=1;strokeColor=none;fillColor=none;" vertex="1" parent="lu0znOIndSDiGiOmnlGc-5">
          <mxGeometry x="371" y="126" width="73" height="26" as="geometry" />
        </mxCell>
        <mxCell id="teR93byTSqqBIhb2rqv4-34" value="" style="sketch=0;points=[[0,0,0],[0.25,0,0],[0.5,0,0],[0.75,0,0],[1,0,0],[0,1,0],[0.25,1,0],[0.5,1,0],[0.75,1,0],[1,1,0],[0,0.25,0],[0,0.5,0],[0,0.75,0],[1,0.25,0],[1,0.5,0],[1,0.75,0]];outlineConnect=0;fontColor=#232F3E;fillColor=#ED7100;strokeColor=#ffffff;dashed=0;verticalLabelPosition=bottom;verticalAlign=top;align=center;html=1;fontSize=12;fontStyle=0;aspect=fixed;shape=mxgraph.aws4.resourceIcon;resIcon=mxgraph.aws4.eks;" vertex="1" parent="lu0znOIndSDiGiOmnlGc-5">
          <mxGeometry x="89" y="178" width="51" height="51" as="geometry" />
        </mxCell>
        <mxCell id="teR93byTSqqBIhb2rqv4-35" value="Elastic Container Kubernets&amp;nbsp; EKS" style="text;html=1;align=center;verticalAlign=middle;resizable=0;points=[];autosize=1;strokeColor=none;fillColor=none;" vertex="1" parent="lu0znOIndSDiGiOmnlGc-5">
          <mxGeometry x="13" y="152" width="197" height="26" as="geometry" />
        </mxCell>
        <mxCell id="lu0znOIndSDiGiOmnlGc-9" value="" style="sketch=0;outlineConnect=0;fontColor=#0E0678;gradientColor=none;fillColor=#0E0678;strokeColor=none;dashed=0;verticalLabelPosition=bottom;verticalAlign=top;align=center;html=1;fontSize=12;fontStyle=0;aspect=fixed;pointerEvents=1;shape=mxgraph.aws4.internet_alt1;labelBackgroundColor=none;labelBorderColor=#0E0678;" parent="1" vertex="1">
          <mxGeometry x="-718" y="251" width="78" height="48" as="geometry" />
        </mxCell>
        <mxCell id="teR93byTSqqBIhb2rqv4-1" value="" style="sketch=0;outlineConnect=0;fontColor=#232F3E;gradientColor=none;fillColor=#0E0678;strokeColor=none;dashed=0;verticalLabelPosition=bottom;verticalAlign=top;align=center;html=1;fontSize=12;fontStyle=0;aspect=fixed;pointerEvents=1;shape=mxgraph.aws4.users;" vertex="1" parent="1">
          <mxGeometry x="-707" y="467" width="60" height="60" as="geometry" />
        </mxCell>
        <mxCell id="teR93byTSqqBIhb2rqv4-8" value="" style="edgeStyle=orthogonalEdgeStyle;html=1;endArrow=open;elbow=vertical;startArrow=none;endFill=0;strokeColor=#545B64;rounded=0;entryX=0;entryY=0.5;entryDx=0;entryDy=0;entryPerimeter=0;" edge="1" parent="1" source="lu0znOIndSDiGiOmnlGc-9" target="teR93byTSqqBIhb2rqv4-17">
          <mxGeometry width="100" relative="1" as="geometry">
            <mxPoint x="-102" y="478" as="sourcePoint" />
            <mxPoint x="11" y="406" as="targetPoint" />
            <Array as="points" />
          </mxGeometry>
        </mxCell>
        <mxCell id="teR93byTSqqBIhb2rqv4-19" value="" style="endArrow=open;html=1;rounded=0;strokeColor=#545B64;endFill=0;" edge="1" parent="1" target="lu0znOIndSDiGiOmnlGc-9">
          <mxGeometry width="50" height="50" relative="1" as="geometry">
            <mxPoint x="-677" y="466.0685483870968" as="sourcePoint" />
            <mxPoint x="-598" y="466" as="targetPoint" />
          </mxGeometry>
        </mxCell>
        <mxCell id="teR93byTSqqBIhb2rqv4-30" value="Internet" style="text;html=1;align=center;verticalAlign=middle;resizable=0;points=[];autosize=1;strokeColor=none;fillColor=none;" vertex="1" parent="1">
          <mxGeometry x="-756" y="227" width="59" height="26" as="geometry" />
        </mxCell>
        <mxCell id="teR93byTSqqBIhb2rqv4-31" value="Client" style="text;html=1;align=center;verticalAlign=middle;resizable=0;points=[];autosize=1;strokeColor=none;fillColor=none;" vertex="1" parent="1">
          <mxGeometry x="-746" y="541" width="49" height="26" as="geometry" />
        </mxCell>
        <mxCell id="teR93byTSqqBIhb2rqv4-29" value="" style="endArrow=open;html=1;rounded=0;strokeColor=#545B64;entryX=0;entryY=0.75;entryDx=0;entryDy=0;entryPerimeter=0;dashed=1;endFill=0;" edge="1" parent="1" source="teR93byTSqqBIhb2rqv4-10" target="teR93byTSqqBIhb2rqv4-12">
          <mxGeometry width="50" height="50" relative="1" as="geometry">
            <mxPoint x="-187" y="449" as="sourcePoint" />
            <mxPoint x="-113" y="447" as="targetPoint" />
            <Array as="points">
              <mxPoint x="-124" y="375" />
            </Array>
          </mxGeometry>
        </mxCell>
      </root>
    </mxGraphModel>
  </diagram>
</mxfile>
